<svg width="24" height="24" viewBox="0 0 24 24" fill="none" xmlns="http://www.w3.org/2000/svg">
<path d="M16 15.2V16.8875L16.9 17.9M20 9V7C20 5.89543 19.1046 5 18 5H15M9 21H6C4.89543 21 4 20.1046 4 19V11M15 3V5M15 7V5M9 3V5M9 7V5M15 5H9M9 5H6C4.89543 5 4 5.89543 4 7V11M9 11H4M20.5 17C20.5 19.4853 18.4853 21.5 16 21.5C13.5147 21.5 11.5 19.4853 11.5 17C11.5 14.5147 13.5147 12.5 16 12.5C18.4853 12.5 20.5 14.5147 20.5 17Z" stroke="black" stroke-width="2" stroke-linecap="round" stroke-linejoin="round"/>
</svg>
