<svg width="42" height="39" viewBox="0 0 42 39" fill="none" xmlns="http://www.w3.org/2000/svg">
<path d="M30.7548 21.4453V0H29.6866V0.322486H29.4521L29.374 0.859963L29.4521 1.34369H29.6866V5.48226C29.6866 5.5808 29.4469 6.08961 28.4882 7.33656C27.5294 8.5835 27.915 17.262 28.2277 21.4453H30.7548Z" fill="#329393"/>
<path d="M31.4552 21.4153V7.89709H34.2358C34.2358 7.89709 35.2493 9.26773 35.2493 11.0952C35.2493 13.2721 33.4042 13.8903 32.5727 13.8903C32.1309 13.8903 31.975 13.9709 31.975 14.804V19.7491C31.975 19.8566 32.1049 19.9909 33.1184 20.2059C33.9292 20.3779 34.2012 21.0839 34.2358 21.4153H31.4552Z" fill="#FF6868"/>
<path d="M26.3482 9.86775C23.8459 9.86775 21.3998 10.6341 19.3193 12.0698C17.2387 13.5055 15.6171 15.5462 14.6595 17.9337C13.7019 20.3212 13.4514 22.9484 13.9395 25.4829C14.4277 28.0175 15.6327 30.3457 17.402 32.173C19.1714 34.0003 21.4258 35.2448 23.88 35.7489C26.3342 36.2531 28.878 35.9943 31.1898 35.0054C33.5017 34.0164 35.4776 32.3417 36.8678 30.193C38.258 28.0443 39 25.5181 39 22.9339H26.3482M15.6518 9.86775C13.1495 9.86775 10.7034 10.6341 8.62284 12.0698C6.54226 13.5055 4.92065 15.5462 3.96307 17.9337C3.00548 20.3212 2.75493 22.9484 3.24311 25.4829C3.73128 28.0175 4.93625 30.3457 6.70563 32.173C8.47501 34.0003 10.7293 35.2448 13.1836 35.7489C15.6378 36.2531 18.1816 35.9943 20.4934 35.0054C22.8052 34.0164 24.7812 32.3417 26.1714 30.193C27.5616 28.0443 28.3036 25.5181 28.3036 22.9339H17.7312" stroke="#FF7B4F" stroke-width="4.58143"/>
</svg>
