<svg width="26" height="26" viewBox="0 0 26 26" fill="none" xmlns="http://www.w3.org/2000/svg">
<path d="M1 17.5V8.5C1 4.35786 4.16034 1 8.05882 1H17.9412C21.8397 1 25 4.35786 25 8.5V17.5C25 21.6421 21.8397 25 17.9412 25H8.05882C4.16034 25 1 21.6421 1 17.5Z" fill="white"/>
<path d="M13 4.75C17.2883 4.75 20.7647 8.44365 20.7647 13C20.7647 17.5563 17.2883 21.25 13 21.25C8.71167 21.25 5.23529 17.5563 5.23529 13C5.23529 8.44365 8.71167 4.75 13 4.75Z" fill="#D32B2B"/>
<path d="M0.5 8.5V17.5C0.5 21.8893 3.85608 25.5 8.05882 25.5H17.9412C22.1439 25.5 25.5 21.8893 25.5 17.5V8.5C25.5 4.11071 22.1439 0.5 17.9412 0.5H8.05882C3.85608 0.5 0.5 4.11071 0.5 8.5Z" stroke="black"/>
</svg>
