<svg width="34" height="34" viewBox="0 0 34 34" fill="none" xmlns="http://www.w3.org/2000/svg">
<path d="M20.6178 8.12222C20.9091 9.35729 22.0182 10.2773 23.3425 10.2773C24.8886 10.2773 26.1421 9.02391 26.1421 7.47779C26.1421 5.93166 24.8886 4.67822 23.3425 4.67822C21.9906 4.67822 20.8632 5.63635 20.6007 6.91079C18.3366 7.1536 16.5687 9.07379 16.5687 11.4008C16.5687 11.4061 16.5687 11.41 16.5687 11.4153C14.1065 11.519 11.8581 12.2198 10.0731 13.3263C9.41032 12.8131 8.5782 12.5073 7.6752 12.5073C5.50826 12.5073 3.75214 14.2634 3.75214 16.4303C3.75214 18.0027 4.67614 19.3572 6.01095 19.9833C6.14089 24.5377 11.1034 28.2008 17.2079 28.2008C23.3123 28.2008 28.2814 24.5337 28.4048 19.9754C29.7291 19.3454 30.6453 17.9948 30.6453 16.4317C30.6453 14.2647 28.8891 12.5086 26.7222 12.5086C25.8231 12.5086 24.9949 12.8118 24.3335 13.321C22.5327 12.2067 20.2594 11.5058 17.7723 11.4127C17.7723 11.4087 17.7723 11.4061 17.7723 11.4022C17.7723 9.73529 19.0113 8.35191 20.6178 8.12485V8.12222ZM9.91564 18.9202C9.98126 17.4974 10.9263 16.4054 12.0248 16.4054C13.1234 16.4054 13.9634 17.5591 13.8978 18.9818C13.8321 20.4046 13.0118 20.9217 11.9119 20.9217C10.8121 20.9217 9.85001 20.3429 9.91564 18.9202ZM22.3923 16.4054C23.4921 16.4054 24.4371 17.4974 24.5014 18.9202C24.5671 20.3429 23.6037 20.9217 22.5051 20.9217C21.4066 20.9217 20.5849 20.4059 20.5193 18.9818C20.4537 17.5591 21.2924 16.4054 22.3923 16.4054ZM21.085 22.2119C21.2911 22.2329 21.4223 22.4468 21.3423 22.6385C20.6663 24.2542 19.0703 25.3895 17.2079 25.3895C15.3454 25.3895 13.7508 24.2542 13.0735 22.6385C12.9934 22.4468 13.1247 22.2329 13.3308 22.2119C14.5383 22.0898 15.8442 22.0229 17.2079 22.0229C18.5716 22.0229 19.8762 22.0898 21.085 22.2119Z" fill="white"/>
</svg>
