<svg width="34" height="34" viewBox="0 0 34 34" fill="none" xmlns="http://www.w3.org/2000/svg">
<g clip-path="url(#clip0_180_300)">
<path d="M31.2128 0.199951H2.5806C1.20904 0.199951 0.0999756 1.28276 0.0999756 2.62151V31.3718C0.0999756 32.7106 1.20904 33.7999 2.5806 33.7999H31.2128C32.5844 33.7999 33.7 32.7106 33.7 31.3784V2.62151C33.7 1.28276 32.5844 0.199951 31.2128 0.199951ZM10.0684 28.8321H5.08091V12.7934H10.0684V28.8321ZM7.57466 10.6081C5.97341 10.6081 4.6806 9.31526 4.6806 7.72058C4.6806 6.12589 5.97341 4.83308 7.57466 4.83308C9.16935 4.83308 10.4622 6.12589 10.4622 7.72058C10.4622 9.3087 9.16935 10.6081 7.57466 10.6081ZM28.7322 28.8321H23.7512V21.0359C23.7512 19.1787 23.7184 16.7834 21.159 16.7834C18.5668 16.7834 18.1731 18.8112 18.1731 20.9046V28.8321H13.1987V12.7934H17.9762V14.9853H18.0418C18.7047 13.7253 20.3322 12.3931 22.7537 12.3931C27.8003 12.3931 28.7322 15.7137 28.7322 20.0318V28.8321Z" fill="white"/>
</g>
<defs>
<clipPath id="clip0_180_300">
<rect width="33.6" height="33.6" fill="white" transform="translate(0.0999756 0.199951)"/>
</clipPath>
</defs>
</svg>
