<svg width="34" height="34" viewBox="0 0 34 34" fill="none" xmlns="http://www.w3.org/2000/svg">
<g clip-path="url(#clip0_180_306)">
<path d="M28.7438 6.01775C26.6023 5.03512 24.3058 4.31116 21.9046 3.89651C21.8609 3.88851 21.8172 3.90851 21.7947 3.94851C21.4994 4.47381 21.1722 5.15911 20.9431 5.69775C18.3606 5.31111 15.7912 5.31111 13.2616 5.69775C13.0325 5.14714 12.6935 4.47381 12.3968 3.94851C12.3743 3.90985 12.3306 3.88985 12.2869 3.89651C9.88706 4.30983 7.59057 5.03379 5.4477 6.01775C5.42915 6.02575 5.41325 6.0391 5.40269 6.05642C1.04674 12.5641 -0.146543 18.9119 0.43884 25.1809C0.441489 25.2116 0.458706 25.2409 0.482545 25.2596C3.35648 27.3701 6.14038 28.6514 8.87258 29.5007C8.91631 29.514 8.96264 29.4981 8.99046 29.462C9.63676 28.5794 10.2129 27.6488 10.7069 26.6702C10.736 26.6129 10.7082 26.5448 10.6486 26.5222C9.73477 26.1755 8.86463 25.7529 8.02761 25.2729C7.9614 25.2343 7.9561 25.1396 8.01701 25.0942C8.19315 24.9622 8.36934 24.8249 8.53752 24.6862C8.56795 24.6609 8.61036 24.6556 8.64613 24.6716C14.145 27.1822 20.0981 27.1822 25.5321 24.6716C25.5679 24.6543 25.6103 24.6596 25.6421 24.6849C25.8103 24.8236 25.9864 24.9622 26.1639 25.0942C26.2248 25.1396 26.2208 25.2343 26.1546 25.2729C25.3176 25.7622 24.4475 26.1755 23.5323 26.5209C23.4727 26.5435 23.4462 26.6129 23.4754 26.6702C23.9799 27.6474 24.5561 28.5781 25.1904 29.4607C25.2169 29.4981 25.2646 29.514 25.3083 29.5007C28.0538 28.6514 30.8377 27.3701 33.7116 25.2596C33.7368 25.2409 33.7527 25.2129 33.7553 25.1822C34.4559 17.9345 32.5819 11.6388 28.7875 6.05774C28.7782 6.0391 28.7624 6.02575 28.7438 6.01775ZM11.528 21.3637C9.87249 21.3637 8.50837 19.8438 8.50837 17.9772C8.50837 16.1106 9.84603 14.5907 11.528 14.5907C13.2232 14.5907 14.5741 16.124 14.5476 17.9772C14.5476 19.8438 13.21 21.3637 11.528 21.3637ZM22.6926 21.3637C21.0371 21.3637 19.673 19.8438 19.673 17.9772C19.673 16.1106 21.0106 14.5907 22.6926 14.5907C24.3879 14.5907 25.7387 16.124 25.7123 17.9772C25.7123 19.8438 24.3879 21.3637 22.6926 21.3637Z" fill="white"/>
</g>
<defs>
<clipPath id="clip0_180_306">
<rect width="33.6" height="33.6" fill="white" transform="translate(0.299988 0.199951)"/>
</clipPath>
</defs>
</svg>
